<svg id="visual" viewBox="0 0 900 600" width="900" height="600" xmlns="http://www.w3.org/2000/svg" xmlns:xlink="http://www.w3.org/1999/xlink" version="1.1"><rect x="0" y="0" width="900" height="600" fill="#140021"></rect><path d="M0 323L129 323L129 401L257 401L257 311L386 311L386 362L514 362L514 300L643 300L643 347L771 347L771 288L900 288L900 330L900 601L900 601L771 601L771 601L643 601L643 601L514 601L514 601L386 601L386 601L257 601L257 601L129 601L129 601L0 601Z" fill="#560090"></path><path d="M0 333L129 333L129 423L257 423L257 389L386 389L386 340L514 340L514 416L643 416L643 434L771 434L771 352L900 352L900 371L900 601L900 601L771 601L771 601L643 601L643 601L514 601L514 601L386 601L386 601L257 601L257 601L129 601L129 601L0 601Z" fill="#6300a5"></path><path d="M0 382L129 382L129 445L257 445L257 414L386 414L386 443L514 443L514 417L643 417L643 415L771 415L771 410L900 410L900 386L900 601L900 601L771 601L771 601L643 601L643 601L514 601L514 601L386 601L386 601L257 601L257 601L129 601L129 601L0 601Z" fill="#7000bb"></path><path d="M0 477L129 477L129 474L257 474L257 460L386 460L386 469L514 469L514 503L643 503L643 497L771 497L771 416L900 416L900 478L900 601L900 601L771 601L771 601L643 601L643 601L514 601L514 601L386 601L386 601L257 601L257 601L129 601L129 601L0 601Z" fill="#7e00d1"></path><path d="M0 533L129 533L129 538L257 538L257 548L386 548L386 479L514 479L514 499L643 499L643 515L771 515L771 542L900 542L900 543L900 601L900 601L771 601L771 601L643 601L643 601L514 601L514 601L386 601L386 601L257 601L257 601L129 601L129 601L0 601Z" fill="#8b00e8"></path><path d="M0 536L129 536L129 544L257 544L257 563L386 563L386 567L514 567L514 523L643 523L643 568L771 568L771 566L900 566L900 514L900 601L900 601L771 601L771 601L643 601L643 601L514 601L514 601L386 601L386 601L257 601L257 601L129 601L129 601L0 601Z" fill="#9900ff"></path></svg>